HIERARCHY
ROOT Hips
{
	OFFSET 0.000000 121.760803 0.000000
	CHANNELS 6 Xposition Yposition Zposition Xrotation Yrotation Zrotation 
	JOINT Spine
	{
		OFFSET 0.072000 7.257294 -0.789700
		CHANNELS 3 Xrotation Yrotation Zrotation
		JOINT Spine1
		{
			OFFSET 0.000000 12.508769 -0.658067
			CHANNELS 3 Xrotation Yrotation Zrotation
			JOINT Spine1_split
			{
				OFFSET 0.000000 12.508769 -0.658067
				CHANNELS 3 Xrotation Yrotation Zrotation
				JOINT Spine2
				{
					OFFSET 0.000000 12.508769 -0.658067
					CHANNELS 3 Xrotation Yrotation Zrotation
					JOINT Neck
					{
						OFFSET 0.000000 14.033295 7.520400
						CHANNELS 3 Xrotation Yrotation Zrotation
						JOINT Head
						{
							OFFSET 0.000000 8.198502 5.703100
							CHANNELS 3 Xrotation Yrotation Zrotation
							JOINT HeadTop_End
							{
								OFFSET 0.000000 17.760803 13.332701
								CHANNELS 3 Xrotation Yrotation Zrotation
								End Site
								{
									OFFSET 0.000000 0.000000 0.000000
								}
							}
						}
					}
					JOINT LeftShoulder
					{
						OFFSET 6.292450 5.785301 -0.669000
						CHANNELS 3 Xrotation Yrotation Zrotation
						JOINT LeftShoulder_split
						{
							OFFSET 6.292450 5.785301 -0.669000
							CHANNELS 3 Xrotation Yrotation Zrotation
							JOINT LeftArm
							{
								OFFSET 13.907140 -6.093903 1.965100
								CHANNELS 3 Xrotation Yrotation Zrotation
								JOINT LeftForeArm
								{
									OFFSET 34.140198 0.000000 0.000000
									CHANNELS 3 Xrotation Yrotation Zrotation
									JOINT LeftHand
									{
										OFFSET 40.960209 0.000000 0.000000
										CHANNELS 3 Xrotation Yrotation Zrotation
										JOINT LeftHandThumb1
										{
											OFFSET 10.006996 -7.170425 9.573125
											CHANNELS 3 Xrotation Yrotation Zrotation
											JOINT LeftHandThumb2
											{
												OFFSET 1.835007 -1.059448 1.059443
												CHANNELS 3 Xrotation Yrotation Zrotation
												JOINT LeftHandThumb3
												{
													OFFSET 2.112267 -1.219513 1.219518
													CHANNELS 3 Xrotation Yrotation Zrotation
													JOINT LeftHandThumb4
													{
														OFFSET 4.843811 -2.796570 2.796576
														CHANNELS 3 Xrotation Yrotation Zrotation
														End Site
														{
															OFFSET 0.000000 0.000000 0.000000
														}
													}
												}
											}
										}
										JOINT LeftHandIndex1
										{
											OFFSET 18.389847 -0.922348 4.596882
											CHANNELS 3 Xrotation Yrotation Zrotation
											JOINT LeftHandIndex2
											{
												OFFSET 4.711273 0.000000 0.000000
												CHANNELS 3 Xrotation Yrotation Zrotation
												JOINT LeftHandIndex3
												{
													OFFSET 2.886131 0.000000 0.000000
													CHANNELS 3 Xrotation Yrotation Zrotation
													JOINT LeftHandIndex4
													{
														OFFSET 6.145912 0.000000 0.000000
														CHANNELS 3 Xrotation Yrotation Zrotation
														End Site
														{
															OFFSET 0.000000 0.000000 0.000000
														}
													}
												}
											}
										}
										JOINT LeftHandMiddle1
										{
											OFFSET 18.013008 0.000000 0.000000
											CHANNELS 3 Xrotation Yrotation Zrotation
											JOINT LeftHandMiddle2
											{
												OFFSET 4.946693 0.000000 0.000000
												CHANNELS 3 Xrotation Yrotation Zrotation
												JOINT LeftHandMiddle3
												{
													OFFSET 3.342232 0.000000 0.000000
													CHANNELS 3 Xrotation Yrotation Zrotation
													JOINT LeftHandMiddle4
													{
														OFFSET 4.461754 0.000000 0.000000
														CHANNELS 3 Xrotation Yrotation Zrotation
														End Site
														{
															OFFSET 0.000000 0.000000 0.000000
														}
													}
												}
											}
										}
										JOINT LeftHandRing1
										{
											OFFSET 15.849892 -0.102921 -4.126150
											CHANNELS 3 Xrotation Yrotation Zrotation
											JOINT LeftHandRing2
											{
												OFFSET 3.527054 0.000000 0.000000
												CHANNELS 3 Xrotation Yrotation Zrotation
												JOINT LeftHandRing3
												{
													OFFSET 2.961098 0.000000 0.000000
													CHANNELS 3 Xrotation Yrotation Zrotation
													JOINT LeftHandRing4
													{
														OFFSET 4.927200 0.000000 0.000000
														CHANNELS 3 Xrotation Yrotation Zrotation
														End Site
														{
															OFFSET 0.000000 0.000000 0.000000
														}
													}
												}
											}
										}
										JOINT LeftHandPinky1
										{
											OFFSET 12.791824 -0.832031 -6.799156
											CHANNELS 3 Xrotation Yrotation Zrotation
											JOINT LeftHandPinky2
											{
												OFFSET 3.327133 0.000000 0.000000
												CHANNELS 3 Xrotation Yrotation Zrotation
												JOINT LeftHandPinky3
												{
													OFFSET 3.014900 0.000000 0.000000
													CHANNELS 3 Xrotation Yrotation Zrotation
													JOINT LeftHandPinky4
													{
														OFFSET 5.847786 0.000000 0.000000
														CHANNELS 3 Xrotation Yrotation Zrotation
														End Site
														{
															OFFSET 0.000000 0.000000 0.000000
														}
													}
												}
											}
										}
									}
								}
							}
						}
					}
					JOINT RightShoulder
					{
						OFFSET -6.292450 5.785301 -0.669000
						CHANNELS 3 Xrotation Yrotation Zrotation
						JOINT RightShoulder_split
						{
							OFFSET -6.292450 5.785301 -0.669000
							CHANNELS 3 Xrotation Yrotation Zrotation
							JOINT RightArm
							{
								OFFSET -13.907140 -6.093903 1.965100
								CHANNELS 3 Xrotation Yrotation Zrotation
								JOINT RightForeArm
								{
									OFFSET -34.140198 0.000000 0.000000
									CHANNELS 3 Xrotation Yrotation Zrotation
									JOINT RightHand
									{
										OFFSET -40.960209 0.000000 0.000000
										CHANNELS 3 Xrotation Yrotation Zrotation
										JOINT RightHandThumb1
										{
											OFFSET -10.007050 -7.170456 9.573117
											CHANNELS 3 Xrotation Yrotation Zrotation
											JOINT RightHandThumb2
											{
												OFFSET -1.835007 -1.059448 1.059443
												CHANNELS 3 Xrotation Yrotation Zrotation
												JOINT RightHandThumb3
												{
													OFFSET -2.112267 -1.219513 1.219518
													CHANNELS 3 Xrotation Yrotation Zrotation
													JOINT RightHandThumb4
													{
														OFFSET -4.843834 -2.796585 2.796590
														CHANNELS 3 Xrotation Yrotation Zrotation
														End Site
														{
															OFFSET 0.000000 0.000000 0.000000
														}
													}
												}
											}
										}
										JOINT RightHandIndex1
										{
											OFFSET -18.389870 -0.922424 4.596786
											CHANNELS 3 Xrotation Yrotation Zrotation
											JOINT RightHandIndex2
											{
												OFFSET -4.711273 0.000000 0.000000
												CHANNELS 3 Xrotation Yrotation Zrotation
												JOINT RightHandIndex3
												{
													OFFSET -2.886131 0.000000 0.000000
													CHANNELS 3 Xrotation Yrotation Zrotation
													JOINT RightHandIndex4
													{
														OFFSET -6.145920 0.000000 0.000000
														CHANNELS 3 Xrotation Yrotation Zrotation
														End Site
														{
															OFFSET 0.000000 0.000000 0.000000
														}
													}
												}
											}
										}
										JOINT RightHandMiddle1
										{
											OFFSET -18.013008 0.000000 0.000000
											CHANNELS 3 Xrotation Yrotation Zrotation
											JOINT RightHandMiddle2
											{
												OFFSET -4.946693 0.000000 0.000000
												CHANNELS 3 Xrotation Yrotation Zrotation
												JOINT RightHandMiddle3
												{
													OFFSET -3.342232 0.000000 0.000000
													CHANNELS 3 Xrotation Yrotation Zrotation
													JOINT RightHandMiddle4
													{
														OFFSET -4.461754 0.000000 0.000000
														CHANNELS 3 Xrotation Yrotation Zrotation
														End Site
														{
															OFFSET 0.000000 0.000000 0.000000
														}
													}
												}
											}
										}
										JOINT RightHandRing1
										{
											OFFSET -15.849876 -0.102936 -4.126237
											CHANNELS 3 Xrotation Yrotation Zrotation
											JOINT RightHandRing2
											{
												OFFSET -3.527054 0.000000 0.000000
												CHANNELS 3 Xrotation Yrotation Zrotation
												JOINT RightHandRing3
												{
													OFFSET -2.961098 0.000000 0.000000
													CHANNELS 3 Xrotation Yrotation Zrotation
													JOINT RightHandRing4
													{
														OFFSET -4.927200 0.000000 0.000000
														CHANNELS 3 Xrotation Yrotation Zrotation
														End Site
														{
															OFFSET 0.000000 0.000000 0.000000
														}
													}
												}
											}
										}
										JOINT RightHandPinky1
										{
											OFFSET -12.791786 -0.832077 -6.799222
											CHANNELS 3 Xrotation Yrotation Zrotation
											JOINT RightHandPinky2
											{
												OFFSET -3.327133 0.000000 0.000000
												CHANNELS 3 Xrotation Yrotation Zrotation
												JOINT RightHandPinky3
												{
													OFFSET -3.014900 0.000000 0.000000
													CHANNELS 3 Xrotation Yrotation Zrotation
													JOINT RightHandPinky4
													{
														OFFSET -5.847786 0.000000 0.000000
														CHANNELS 3 Xrotation Yrotation Zrotation
														End Site
														{
															OFFSET 0.000000 0.000000 0.000000
														}
													}
												}
											}
										}
									}
								}
							}
						}
					}
				}
			}
		}
	}
	JOINT LeftUpLeg
	{
		OFFSET 13.026900 -6.336304 -1.092800
		CHANNELS 3 Xrotation Yrotation Zrotation
		JOINT LeftLeg
		{
			OFFSET 0.524474 -46.096886 9.782700
			CHANNELS 3 Xrotation Yrotation Zrotation
			JOINT LeftFoot
			{
				OFFSET -0.524474 -53.427422 -12.948200
				CHANNELS 3 Xrotation Yrotation Zrotation
				JOINT LeftToeBase
				{
					OFFSET 0.192200 -14.009700 16.364100
					CHANNELS 3 Xrotation Yrotation Zrotation
					JOINT LeftToe_End
					{
						OFFSET -1.784700 -0.561700 9.474800
						CHANNELS 3 Xrotation Yrotation Zrotation
						End Site
						{
							OFFSET 0.000000 0.000000 0.000000
						}
					}
				}
			}
		}
	}
	JOINT RightUpLeg
	{
		OFFSET -12.883000 -6.336304 -1.092800
		CHANNELS 3 Xrotation Yrotation Zrotation
		JOINT RightLeg
		{
			OFFSET -0.524587 -46.096825 9.782800
			CHANNELS 3 Xrotation Yrotation Zrotation
			JOINT RightFoot
			{
				OFFSET 0.524587 -53.427383 -12.948300
				CHANNELS 3 Xrotation Yrotation Zrotation
				JOINT RightToeBase
				{
					OFFSET -0.192200 -14.009700 16.364100
					CHANNELS 3 Xrotation Yrotation Zrotation
					JOINT RightToe_End
					{
						OFFSET 1.784700 -0.561700 9.474800
						CHANNELS 3 Xrotation Yrotation Zrotation
						End Site
						{
							OFFSET 0.000000 0.000000 0.000000
						}
					}
				}
			}
		}
	}
}
MOTION
Frames: 4
Frame Time: 0.016667
0.856015 116.274498 1.148788 -0.893849 1.571884 -5.869411 1.308573 -1.180060 3.526955 0.728743 0.264195 5.944685 0.000000 0.000000 0.000000 0.710790 0.781493 5.851998 1.045309 -0.304693 -2.163986 1.584931 0.544179 -8.140494 0.000001 -0.000000 0.000000 3.582358 -13.764041 -5.044456 0.000000 0.000000 0.000000 4.032786 3.514251 -83.678355 0.000002 -14.506746 0.000026 -27.592509 3.698839 -9.416212 18.491274 -0.461423 10.916061 1.284061 32.757604 -3.088965 2.117130 9.311165 -0.358622 0.000000 -0.000001 0.000001 0.339561 4.671352 -7.844268 0.387037 2.823579 -20.566224 0.034626 0.816833 -10.169802 0.000001 0.000000 -0.000002 0.912588 8.769268 -15.831754 0.919079 3.991133 -33.400424 0.170568 1.488881 -12.264411 -0.000000 -0.000000 -0.000002 2.555815 11.673028 -26.909205 1.710654 3.886782 -40.215461 0.544859 1.835074 -19.344154 -0.000001 -0.000000 0.000000 5.576074 16.029184 -36.940634 1.378689 4.077646 -45.645635 0.486590 2.853393 -20.524732 -0.000000 0.000000 0.000002 4.508128 3.324373 5.471577 0.000000 0.000000 0.000000 -1.219627 0.655871 67.345412 0.000009 17.736787 -0.000024 -11.193156 -9.123238 10.139282 18.491276 0.461413 -10.916077 1.284040 -32.757611 3.088956 2.008700 -8.430467 1.114714 -0.000001 -0.000000 0.000000 0.339563 -4.671355 7.844284 0.387034 -2.823581 20.566256 -0.193125 -0.216346 13.843932 -0.000000 0.000000 0.000002 0.912581 -8.769265 15.831736 0.919076 -3.991133 33.400431 0.216467 -1.688832 15.898042 -0.000000 -0.000000 -0.000002 2.555809 -11.673027 26.909192 1.710650 -3.886789 40.215457 -0.157952 0.035274 17.815346 0.000001 0.000000 -0.000000 5.576078 -16.029170 36.940641 1.378689 -4.077636 45.645621 -0.727748 -0.247557 22.122745 -0.000001 -0.000001 0.000001 -19.209036 10.487335 17.522714 20.592570 9.264583 2.398880 -0.149466 3.378264 -9.846965 -0.419551 -0.000012 -0.000000 0.000000 0.000002 0.000000 -1.104723 -4.865983 10.472335 12.001599 -4.849627 3.826455 -9.820839 0.877034 -7.713978 -0.524589 -0.000004 0.000001 -0.000000 -0.000000 0.000000 
0.694368 116.305832 1.135357 -0.843459 1.621937 -6.002662 1.272949 -1.178680 3.577462 0.804996 0.271352 5.942364 0.000000 0.000000 0.000000 0.791298 0.784184 5.830782 0.939036 -0.325876 -2.038776 0.998202 0.423416 -7.945850 -0.000000 0.000000 -0.000000 3.578788 -13.707249 -5.015860 0.000000 0.000000 0.000000 3.780839 3.390085 -83.456039 0.000001 -14.511150 -0.000010 -27.318759 4.020864 -9.432629 18.491269 -0.461423 10.916060 1.284061 32.757608 -3.088962 2.117130 9.311160 -0.358623 -0.000000 0.000001 -0.000000 0.339558 4.671353 -7.844269 0.387036 2.823578 -20.566222 0.034627 0.816833 -10.169809 0.000002 -0.000001 -0.000002 0.912583 8.769269 -15.831752 0.919077 3.991133 -33.400424 0.170568 1.488879 -12.264411 0.000001 0.000000 0.000001 2.555810 11.673028 -26.909209 1.710658 3.886779 -40.215461 0.544857 1.835071 -19.344154 -0.000000 -0.000000 0.000000 5.576068 16.029182 -36.940634 1.378687 4.077645 -45.645632 0.486589 2.853394 -20.524732 -0.000001 0.000000 -0.000001 4.481675 3.349432 5.590986 0.000000 0.000000 0.000000 -1.177692 1.237859 67.216233 0.000004 17.736823 -0.000006 -11.184833 -8.945793 10.174459 18.491274 0.461413 -10.916077 1.284043 -32.757611 3.088957 2.008700 -8.430470 1.114715 -0.000001 0.000003 -0.000000 0.339564 -4.671355 7.844286 0.387034 -2.823580 20.566256 -0.193125 -0.216347 13.843928 -0.000000 -0.000000 0.000000 0.912582 -8.769265 15.831738 0.919075 -3.991133 33.400424 0.216466 -1.688831 15.898044 -0.000000 0.000000 0.000001 2.555809 -11.673026 26.909197 1.710651 -3.886788 40.215461 -0.157954 0.035274 17.815346 -0.000000 -0.000000 -0.000000 5.576077 -16.029168 36.940641 1.378688 -4.077635 45.645628 -0.727751 -0.247559 22.122747 0.000001 -0.000000 -0.000001 -19.269268 10.384278 17.725324 20.497203 9.352667 2.423238 -0.041175 3.260433 -9.947510 -0.419551 0.000007 -0.000002 0.000000 0.000000 0.000000 -1.004618 -4.742651 10.682122 11.697733 -4.968312 3.896749 -9.685808 0.847612 -7.837973 -0.515512 0.000004 -0.000001 -0.000000 0.000001 0.000000 
0.534899 116.328766 1.124356 -0.793992 1.674440 -6.136984 1.237325 -1.186269 3.625386 0.883787 0.274246 5.935621 0.000000 0.000000 0.000000 0.874439 0.782059 5.804660 0.823466 -0.344953 -1.909928 0.389958 0.303443 -7.738953 0.000000 -0.000000 0.000000 3.574453 -13.651339 -4.988284 0.000000 0.000000 0.000000 3.522155 3.255683 -83.224626 0.000003 -14.517246 0.000003 -27.029893 4.361256 -9.454737 18.491270 -0.461423 10.916059 1.284062 32.757608 -3.088965 2.117130 9.311159 -0.358622 0.000000 0.000003 -0.000000 0.339559 4.671353 -7.844269 0.387032 2.823579 -20.566231 0.034625 0.816832 -10.169812 0.000000 0.000001 -0.000004 0.912585 8.769270 -15.831754 0.919077 3.991132 -33.400421 0.170567 1.488880 -12.264409 0.000002 0.000000 -0.000002 2.555813 11.673031 -26.909209 1.710654 3.886780 -40.215461 0.544859 1.835073 -19.344156 0.000000 -0.000001 -0.000000 5.576070 16.029184 -36.940634 1.378691 4.077646 -45.645632 0.486588 2.853393 -20.524732 0.000000 0.000000 -0.000000 4.449801 3.381857 5.730769 0.000000 0.000000 0.000000 -1.131084 1.840464 67.077068 0.000003 17.687977 0.000002 -11.183871 -8.708328 10.219231 18.491279 0.461413 -10.916077 1.284041 -32.757615 3.088958 2.008702 -8.430470 1.114715 -0.000000 -0.000003 0.000001 0.339563 -4.671355 7.844284 0.387034 -2.823581 20.566256 -0.193125 -0.216347 13.843931 -0.000000 -0.000000 0.000001 0.912581 -8.769265 15.831735 0.919075 -3.991134 33.400428 0.216466 -1.688833 15.898044 0.000000 -0.000000 -0.000001 2.555810 -11.673026 26.909195 1.710650 -3.886789 40.215461 -0.157953 0.035274 17.815348 0.000001 0.000000 0.000000 5.576077 -16.029168 36.940644 1.378688 -4.077636 45.645621 -0.727750 -0.247559 22.122744 -0.000000 -0.000001 0.000002 -19.340999 10.277203 17.927811 20.426005 9.430195 2.450228 0.055503 3.152142 -10.049001 -0.419549 -0.000009 0.000002 0.000000 -0.000000 0.000000 -0.915123 -4.620389 10.892319 11.418773 -5.089483 3.964631 -9.565064 0.819630 -7.959278 -0.510300 -0.000003 -0.000002 0.000000 0.000001 0.000000 
0.382668 116.329590 1.120111 -0.746773 1.733794 -6.272918 1.201894 -1.202341 3.668280 0.965308 0.273020 5.924296 0.000000 0.000000 0.000000 0.960402 0.775222 5.773463 0.698737 -0.362127 -1.777485 -0.238802 0.182365 -7.518668 0.000000 0.000000 -0.000000 3.569244 -13.596746 -4.962267 0.000000 0.000000 0.000000 3.256769 3.110458 -82.983124 0.000005 -14.524937 0.000015 -26.724497 4.721303 -9.483409 18.491272 -0.461422 10.916061 1.284062 32.757608 -3.088966 2.117130 9.311158 -0.358623 0.000000 0.000003 -0.000001 0.339563 4.671353 -7.844270 0.387037 2.823578 -20.566229 0.034624 0.816832 -10.169815 0.000001 0.000000 0.000000 0.912586 8.769269 -15.831754 0.919079 3.991132 -33.400424 0.170568 1.488879 -12.264405 -0.000001 -0.000000 -0.000003 2.555814 11.673030 -26.909209 1.710656 3.886780 -40.215464 0.544856 1.835072 -19.344153 0.000000 0.000000 -0.000000 5.576071 16.029182 -36.940638 1.378691 4.077645 -45.645635 0.486587 2.853393 -20.524734 -0.000001 0.000000 0.000001 4.412045 3.421893 5.891973 0.000000 0.000000 0.000000 -1.079198 2.463878 66.927186 0.000003 17.587206 -0.000012 -11.191069 -8.406588 10.273786 18.491277 0.461413 -10.916074 1.284041 -32.757611 3.088957 2.008701 -8.430467 1.114714 -0.000001 -0.000002 0.000001 0.339563 -4.671355 7.844284 0.387034 -2.823580 20.566256 -0.193125 -0.216346 13.843926 -0.000000 -0.000000 0.000001 0.912581 -8.769265 15.831738 0.919075 -3.991133 33.400424 0.216467 -1.688832 15.898042 0.000000 0.000001 0.000001 2.555810 -11.673025 26.909195 1.710650 -3.886789 40.215461 -0.157954 0.035275 17.815346 0.000000 -0.000000 -0.000000 5.576078 -16.029170 36.940638 1.378690 -4.077635 45.645625 -0.727749 -0.247560 22.122747 -0.000002 -0.000000 0.000001 -19.443605 10.159178 18.128304 20.420416 9.479490 2.483590 0.119964 3.069426 -10.152985 -0.419549 -0.000005 0.000003 0.000000 0.000002 -0.000000 -0.860473 -4.500837 11.101442 11.216863 -5.215967 4.023429 -9.485176 0.793535 -8.067785 -0.514994 -0.000000 -0.000002 -0.000000 -0.000001 -0.000000 
